<svg xmlns="http://www.w3.org/2000/svg" version="1.1" xmlns:xlink="http://www.w3.org/1999/xlink" width="587.7362346339211" height="200" viewBox="-3.19149112701416 10.277566909790039 82.69315338134766 21.54243278503418"><path d="M2.52 22.01L2.52 22.01Q3.26 21.00 3.73 21.04Q4.20 21.07 4.34 21.43Q4.47 21.78 4.57 22.08Q4.67 22.38 4.77 22.96Q4.86 23.54 3.97 25.20Q3.09 26.86 4.10 25.62Q5.12 24.38 5.84 24.07Q6.56 23.77 7.17 24.07Q7.77 24.38 7.93 24.80Q8.09 25.23 8.13 25.78Q8.16 26.33 8.28 26.41Q8.40 26.48 9.57 25.23Q10.74 23.98 11.63 23.58Q12.52 23.18 13.11 23.42Q13.69 23.65 14.13 24.34Q14.57 25.02 15.27 26.33Q15.98 27.64 16.73 28.25Q17.48 28.87 18.07 28.98Q18.65 29.10 20.10 28.35Q21.54 27.60 20.74 28.07Q19.94 28.54 19.13 28.88Q18.32 29.22 17.99 29.40Q17.66 29.59 17.08 29.73Q16.50 29.86 16.00 29.61Q15.49 29.36 15.02 28.96Q14.55 28.55 13.85 27.63Q13.14 26.70 12.84 26.25Q12.54 25.80 12.09 25.88Q11.64 25.96 11.15 26.38Q10.66 26.80 9.81 27.58Q8.96 28.36 8.49 29.22Q8.01 30.08 7.91 30.32Q7.81 30.57 7.40 31.01Q6.99 31.45 6.62 31.34Q6.25 31.23 6.08 30.95Q5.92 30.66 6.05 29.94Q6.19 29.22 6.28 28.55Q6.37 27.89 6.42 27.11Q6.46 26.33 5.96 26.28Q5.45 26.23 4.27 27.39Q3.09 28.55 2.77 29.20Q2.46 29.84 2.28 30.12Q2.09 30.39 1.88 30.55Q1.68 30.70 1.06 30.51Q0.45 30.31 0.37 30Q0.29 29.69 0.66 28.73Q1.04 27.77 1.64 25.78Q2.25 23.79 2.48 23.26Q2.71 22.73-0.77 25.18Q-4.26 27.62-2.72 26.37Q-1.19 25.12 0.29 24.07Q1.78 23.03 2.52 22.01ZM19.14 28.95L19.14 28.95Q19.53 28.55 20.47 28.59Q21.41 28.63 21.64 28.87Q21.88 29.10 21.95 29.53Q22.03 29.96 21.56 30.47Q21.09 30.98 20.51 31.09Q19.92 31.21 19.34 30.70Q18.75 30.20 18.75 29.77Q18.75 29.34 19.14 28.95ZM34.47 14.45L34.47 14.45Q35.47 13.87 36.16 14.04Q36.86 14.22 37.21 14.68Q37.56 15.14 37.35 15.71Q37.15 16.29 36.64 16.43Q36.13 16.56 35.41 16.81Q34.69 17.05 33.82 17.63Q32.95 18.20 31.60 19.32Q30.25 20.43 28.91 21.85Q27.56 23.26 27.04 24.70Q26.52 26.13 26.47 26.72Q26.43 27.30 26.61 27.99Q26.80 28.67 27.24 29.06Q27.68 29.45 28.32 29.62Q28.96 29.79 29.68 29.73Q30.39 29.67 31.49 29.57Q32.60 29.47 34.38 28.98Q36.15 28.50 37.99 27.52Q39.82 26.54 40.39 25.96Q40.96 25.37 40.33 26.15Q39.71 26.93 38.55 27.68Q37.40 28.42 35.14 29.70Q32.87 30.98 31.80 31.33Q30.72 31.68 29.68 31.78Q28.63 31.88 27.74 31.73Q26.86 31.58 26.27 31.18Q25.68 30.78 25.02 29.86Q24.36 28.95 24.22 27.71Q24.08 26.48 24.41 25.21Q24.75 23.95 25.38 22.94Q26.02 21.93 27.00 20.61Q27.99 19.28 29.82 17.82Q31.66 16.37 32.58 15.70Q33.50 15.04 34.47 14.45ZM41.88 10.47L41.88 10.47Q42.89 10.23 43.54 10.72Q44.18 11.21 43.28 12.44Q42.38 13.67 40.76 17.63Q39.14 21.58 38.65 23.24Q38.16 24.90 38.57 24.45Q38.98 24.00 39.38 23.64Q39.79 23.28 40.27 22.90Q40.76 22.52 41.16 22.34Q41.56 22.17 42.05 22.08Q42.54 21.99 42.94 22.22Q43.34 22.44 43.56 22.79Q43.79 23.14 43.84 24.06Q43.89 24.98 43.73 25.99Q43.57 26.99 43.71 27.50Q43.85 28.01 44.21 28.40Q44.57 28.79 45.45 28.58Q46.33 28.38 46.82 27.86Q47.30 27.34 47.04 27.93Q46.78 28.52 46.26 28.97Q45.74 29.43 45 29.78Q44.26 30.12 43.79 30.13Q43.32 30.14 42.83 29.74Q42.34 29.34 42.17 28.58Q41.99 27.83 42.09 26.25Q42.19 24.67 41.87 24.37Q41.54 24.06 40.21 25.06Q38.87 26.05 38.18 27.30Q37.50 28.55 37.17 29.42Q36.84 30.29 36.35 30.16Q35.86 30.02 35.59 29.71Q35.31 29.39 35.31 28.82Q35.31 28.24 36.48 24.36Q37.66 20.47 39.16 16.76Q40.66 13.05 40.92 12.25Q41.17 11.45 41.88 10.47ZM53.61 21.66L53.61 21.66Q54.06 21.54 54.60 21.62Q55.14 21.70 55.46 21.95Q55.78 22.21 56.07 22.95Q56.37 23.69 55.81 23.95Q55.25 24.20 54.80 23.77Q54.36 23.34 53.87 23.59Q53.38 23.85 52.90 24.11Q52.42 24.38 51.72 24.94Q51.02 25.51 50.27 26.39Q49.53 27.27 49.45 27.51Q49.38 27.75 49.83 27.44Q50.29 27.13 51.24 26.49Q52.19 25.86 53.62 25.20Q55.06 24.53 55.44 24.68Q55.82 24.82 56.09 25.21Q56.37 25.61 56.41 25.89Q56.45 26.17 56.32 26.34Q56.19 26.50 56.03 27.09Q55.86 27.68 56.05 28.22Q56.25 28.77 56.55 28.97Q56.86 29.18 57.38 29.09Q57.91 29.00 58.68 28.29Q59.45 27.58 58.61 28.62Q57.77 29.67 57.29 29.95Q56.80 30.23 56.52 30.22Q56.25 30.21 55.81 30.05Q55.37 29.88 54.98 29.53Q54.59 29.18 54.37 28.67Q54.14 28.16 54.06 27.92Q53.98 27.68 53.70 27.38Q53.42 27.09 53.01 27.26Q52.60 27.42 51.57 28.16Q50.55 28.91 49.66 29.38Q48.77 29.86 48.07 30.05Q47.36 30.23 47.16 30.18Q46.95 30.12 46.71 29.74Q46.46 29.36 46.43 28.91Q46.39 28.46 46.55 28.00Q46.72 27.54 47.80 26.16Q48.89 24.79 49.89 23.91Q50.90 23.03 52.03 22.41Q53.16 21.80 53.61 21.66ZM61.27 21.95L61.27 21.95Q61.68 21.76 62.31 22.03Q62.95 22.30 62.59 23.05Q62.23 23.79 61.41 25.50Q60.59 27.21 61.24 26.44Q61.89 25.66 62.82 24.86Q63.75 24.06 64.16 23.83Q64.57 23.59 65.05 23.48Q65.53 23.36 66.13 23.54Q66.74 23.71 67.17 24.52Q67.60 25.33 67.63 27.20Q67.66 29.06 68.54 29.02Q69.43 28.98 70.27 28.37Q71.11 27.75 71.52 27.12Q71.93 26.48 71.88 26.78Q71.82 27.07 71.43 27.64Q71.04 28.20 69.77 29.39Q68.50 30.59 67.57 30.61Q66.64 30.63 66.22 29.86Q65.80 29.10 65.67 27.43Q65.55 25.76 65.23 25.73Q64.92 25.70 63.87 26.36Q62.81 27.01 61.93 28.07Q61.05 29.12 60.50 29.85Q59.94 30.59 59.49 30.74Q59.04 30.90 58.76 30.51Q58.48 30.12 58.56 29.55Q58.65 28.98 58.91 27.81Q59.16 26.64 59.63 25.34Q60.10 24.04 59.41 24.49Q58.73 24.94 57.74 25.85Q56.76 26.76 58.45 24.99Q60.14 23.22 60.32 22.93Q60.51 22.64 60.68 22.39Q60.86 22.15 61.27 21.95ZM76.02 10.59L76.02 10.59Q76.25 10.25 76.66 10.28Q77.07 10.31 77.42 10.63Q77.77 10.96 78.17 11.56Q78.57 12.17 78.88 13.99Q79.18 15.82 78.97 17.49Q78.77 19.16 78.64 19.61Q78.52 20.06 79.02 20.57Q79.53 21.07 79.50 21.50Q79.47 21.93 79.10 22.21Q78.73 22.48 78.38 22.38Q78.03 22.29 77.57 23.46Q77.11 24.63 76.45 25.75Q75.78 26.88 75.23 27.64Q74.69 28.40 73.74 29.23Q72.79 30.06 72.27 30.18Q71.74 30.29 71.35 30.17Q70.96 30.04 70.63 29.51Q70.29 28.98 70.26 27.54Q70.23 26.09 71.11 24.69Q71.99 23.28 74.28 22.22Q76.56 21.15 75.83 21.46Q75.10 21.76 70.33 22.24Q65.57 22.71 70.77 22.01Q75.98 21.31 76.49 20.78Q77.01 20.25 77.24 19.05Q77.46 17.85 77.48 16.82Q77.50 15.78 77.34 14.74Q77.19 13.69 76.42 12.63Q75.64 11.56 75.72 11.23Q75.80 10.90 76.02 10.59ZM74.71 23.98L74.71 23.98Q74.30 24.16 73.50 24.94Q72.70 25.72 72.40 26.40Q72.11 27.07 72.25 27.47Q72.38 27.87 73.43 26.80Q74.47 25.72 74.79 25.03Q75.12 24.34 75.13 24.07Q75.14 23.81 74.71 23.98Z" fill="black"></path></svg>