<svg xmlns="http://www.w3.org/2000/svg" xmlns:xlink="http://www.w3.org/1999/xlink" viewBox="29.915390014648438 -13.785839080810547 302.5748291015625 166.98583984375" width="362.3957928225342" height="200"><path d="M 39.200,81.000 C 39.200,85.000 39.200,85.000 39.200,89.000" stroke-width="5.376" stroke="black" fill="none" stroke-linecap="round"></path><path d="M 39.200,89.000 C 39.533,91.828 39.200,91.800 39.200,94.600" stroke-width="4.468" stroke="black" fill="none" stroke-linecap="round"></path><path d="M 39.200,94.600 C 37.953,101.793 38.333,101.828 36.800,109.000" stroke-width="4.026" stroke="black" fill="none" stroke-linecap="round"></path><path d="M 36.800,109.000 C 36.400,111.800 36.353,111.793 36.000,114.600" stroke-width="4.116" stroke="black" fill="none" stroke-linecap="round"></path><path d="M 36.000,114.600 C 35.313,121.441 35.600,117.400 35.200,120.200" stroke-width="4.843" stroke="black" fill="none" stroke-linecap="round"></path><path d="M 35.200,120.200 C 34.738,112.965 34.913,117.041 35.200,105.800" stroke-width="5.065" stroke="black" fill="none" stroke-linecap="round"></path><path d="M 35.200,105.800 C 35.699,100.537 35.538,100.565 36.800,95.400" stroke-width="3.766" stroke="black" fill="none" stroke-linecap="round"></path><path d="M 36.800,95.400 C 38.400,89.400 38.099,89.337 40.000,83.400" stroke-width="3.390" stroke="black" fill="none" stroke-linecap="round"></path><path d="M 40.000,83.400 C 41.826,77.446 41.600,77.400 43.200,71.400" stroke-width="3.849" stroke="black" fill="none" stroke-linecap="round"></path><path d="M 43.200,71.400 C 42.785,65.800 43.826,68.646 44.000,65.800" stroke-width="4.102" stroke="black" fill="none" stroke-linecap="round"></path><path d="M 44.000,65.800 C 47.112,68.211 45.585,65.800 48.800,71.400" stroke-width="4.940" stroke="black" fill="none" stroke-linecap="round"></path><path d="M 48.800,71.400 C 50.423,75.318 50.712,75.011 51.200,79.400" stroke-width="4.594" stroke="black" fill="none" stroke-linecap="round"></path><path d="M 51.200,79.400 C 51.237,83.876 52.023,83.718 52.000,88.200" stroke-width="4.503" stroke="black" fill="none" stroke-linecap="round"></path><path d="M 52.000,88.200 C 53.033,90.545 52.437,90.676 53.600,93.000" stroke-width="4.916" stroke="black" fill="none" stroke-linecap="round"></path><path d="M 53.600,93.000 C 53.512,99.488 54.233,95.745 54.400,98.600" stroke-width="5.174" stroke="black" fill="none" stroke-linecap="round"></path><path d="M 54.400,98.600 C 56.939,93.053 56.312,96.688 59.200,87.400" stroke-width="5.209" stroke="black" fill="none" stroke-linecap="round"></path><path d="M 59.200,87.400 C 60.105,85.031 60.139,85.053 60.800,82.600" stroke-width="4.565" stroke="black" fill="none" stroke-linecap="round"></path><path d="M 60.800,82.600 C 60.757,78.871 61.706,79.431 62.400,76.200" stroke-width="4.650" stroke="black" fill="none" stroke-linecap="round"></path><path d="M 62.400,76.200 C 65.000,72.000 63.957,73.671 67.200,72.200" stroke-width="4.990" stroke="black" fill="none" stroke-linecap="round"></path><path d="M 67.200,72.200 C 69.838,74.276 69.400,72.400 71.200,77.000" stroke-width="5.283" stroke="black" fill="none" stroke-linecap="round"></path><path d="M 71.200,77.000 C 72.193,80.164 72.638,79.876 72.800,83.400" stroke-width="4.300" stroke="black" fill="none" stroke-linecap="round"></path><path d="M 72.800,83.400 C 73.024,86.630 73.393,86.564 73.600,89.800" stroke-width="4.142" stroke="black" fill="none" stroke-linecap="round"></path><path d="M 73.600,89.800 C 75.230,95.354 74.624,95.430 76.000,101.000" stroke-width="4.166" stroke="black" fill="none" stroke-linecap="round"></path><path d="M 76.000,101.000 C 76.000,104.200 76.430,104.154 76.000,107.400" stroke-width="4.518" stroke="black" fill="none" stroke-linecap="round"></path><path d="M 76.000,107.400 C 75.801,110.214 76.000,110.200 76.000,113.000" stroke-width="4.973" stroke="black" fill="none" stroke-linecap="round"></path><circle r="1.5" cx="94.4000244140625" cy="101.80000305175781" fill="black"></circle><path d="M 134.400,71.400 C 131.864,75.325 132.000,75.400 129.600,79.400" stroke-width="5.296" stroke="black" fill="none" stroke-linecap="round"></path><path d="M 129.600,79.400 C 128.000,82.600 127.864,82.525 126.400,85.800" stroke-width="4.224" stroke="black" fill="none" stroke-linecap="round"></path><path d="M 126.400,85.800 C 124.747,88.039 125.200,88.200 124.000,90.600" stroke-width="4.260" stroke="black" fill="none" stroke-linecap="round"></path><path d="M 124.000,90.600 C 122.010,97.741 121.947,97.639 120.800,105.000" stroke-width="3.302" stroke="black" fill="none" stroke-linecap="round"></path><path d="M 120.800,105.000 C 120.622,109.829 120.010,109.741 120.000,114.600" stroke-width="3.547" stroke="black" fill="none" stroke-linecap="round"></path><path d="M 120.000,114.600 C 118.717,118.956 119.422,119.029 118.400,123.400" stroke-width="3.590" stroke="black" fill="none" stroke-linecap="round"></path><path d="M 118.400,123.400 C 118.400,130.200 117.917,130.156 118.400,137.000" stroke-width="3.856" stroke="black" fill="none" stroke-linecap="round"></path><path d="M 118.400,137.000 C 117.747,140.354 118.400,140.200 118.400,143.400" stroke-width="4.431" stroke="black" fill="none" stroke-linecap="round"></path><path d="M 118.400,143.400 C 118.865,147.672 118.947,145.954 120.800,148.200" stroke-width="4.971" stroke="black" fill="none" stroke-linecap="round"></path><path d="M 120.800,148.200 C 124.402,147.719 123.265,148.872 127.200,145.800" stroke-width="4.202" stroke="black" fill="none" stroke-linecap="round"></path><path d="M 127.200,145.800 C 137.892,137.254 138.402,138.119 148.800,129.000" stroke-width="2.447" stroke="black" fill="none" stroke-linecap="round"></path><path d="M 148.800,129.000 C 153.219,126.682 152.692,126.054 156.800,123.400" stroke-width="3.139" stroke="black" fill="none" stroke-linecap="round"></path><path d="M 156.800,123.400 C 163.610,118.184 162.819,117.882 168.000,111.400" stroke-width="2.940" stroke="black" fill="none" stroke-linecap="round"></path><path d="M 168.000,111.400 C 172.056,104.014 172.410,104.584 174.400,96.200" stroke-width="2.880" stroke="black" fill="none" stroke-linecap="round"></path><path d="M 174.400,96.200 C 174.576,91.768 175.656,92.014 175.200,87.400" stroke-width="3.410" stroke="black" fill="none" stroke-linecap="round"></path><path d="M 175.200,87.400 C 176.415,83.441 175.776,83.368 176.800,79.400" stroke-width="3.625" stroke="black" fill="none" stroke-linecap="round"></path><path d="M 176.800,79.400 C 176.800,75.000 177.215,75.041 176.800,70.600" stroke-width="3.628" stroke="black" fill="none" stroke-linecap="round"></path><path d="M 176.800,70.600 C 176.800,67.000 176.800,67.000 176.800,63.400" stroke-width="3.848" stroke="black" fill="none" stroke-linecap="round"></path><path d="M 176.800,63.400 C 176.800,59.800 176.800,59.800 176.800,56.200" stroke-width="4.372" stroke="black" fill="none" stroke-linecap="round"></path><path d="M 176.800,56.200 C 176.800,49.760 176.800,53.400 176.800,50.600" stroke-width="4.682" stroke="black" fill="none" stroke-linecap="round"></path><path d="M 176.800,50.600 C 176.800,55.800 176.800,52.160 176.800,61.000" stroke-width="5.094" stroke="black" fill="none" stroke-linecap="round"></path><path d="M 176.800,61.000 C 176.800,73.000 176.800,73.000 176.800,85.000" stroke-width="2.703" stroke="black" fill="none" stroke-linecap="round"></path><path d="M 176.800,85.000 C 176.800,93.800 176.800,93.800 176.800,102.600" stroke-width="2.800" stroke="black" fill="none" stroke-linecap="round"></path><path d="M 176.800,102.600 C 176.800,105.800 176.800,105.800 176.800,109.000" stroke-width="3.554" stroke="black" fill="none" stroke-linecap="round"></path><path d="M 188.800,88.200 C 190.107,90.959 190.000,91.000 191.200,93.800" stroke-width="4.776" stroke="black" fill="none" stroke-linecap="round"></path><path d="M 191.200,93.800 C 192.056,96.183 192.107,96.159 192.800,98.600" stroke-width="4.458" stroke="black" fill="none" stroke-linecap="round"></path><path d="M 192.800,98.600 C 193.923,101.340 193.656,101.383 194.400,104.200" stroke-width="4.267" stroke="black" fill="none" stroke-linecap="round"></path><path d="M 194.400,104.200 C 193.350,109.532 195.123,108.540 195.200,113.000" stroke-width="4.384" stroke="black" fill="none" stroke-linecap="round"></path><path d="M 195.200,113.000 C 197.920,115.994 196.550,115.532 200.800,116.200" stroke-width="5.071" stroke="black" fill="none" stroke-linecap="round"></path><path d="M 200.800,116.200 C 203.505,114.705 203.520,116.394 206.400,113.800" stroke-width="4.430" stroke="black" fill="none" stroke-linecap="round"></path><path d="M 206.400,113.800 C 210.041,113.149 209.905,112.705 213.600,112.200" stroke-width="4.063" stroke="black" fill="none" stroke-linecap="round"></path><path d="M 220.800,88.200 C 223.745,87.587 223.600,88.200 226.400,88.200" stroke-width="5.493" stroke="black" fill="none" stroke-linecap="round"></path><path d="M 226.400,88.200 C 230.105,88.593 228.945,88.787 231.200,90.600" stroke-width="5.424" stroke="black" fill="none" stroke-linecap="round"></path><path d="M 231.200,90.600 C 231.534,93.830 232.505,92.993 231.200,97.000" stroke-width="4.938" stroke="black" fill="none" stroke-linecap="round"></path><path d="M 231.200,97.000 C 231.484,102.032 230.734,101.430 229.600,105.800" stroke-width="4.787" stroke="black" fill="none" stroke-linecap="round"></path><path d="M 229.600,105.800 C 227.452,108.253 228.284,108.432 224.800,109.800" stroke-width="4.747" stroke="black" fill="none" stroke-linecap="round"></path><path d="M 224.800,109.800 C 222.417,111.400 222.652,111.053 220.000,111.400" stroke-width="5.151" stroke="black" fill="none" stroke-linecap="round"></path><path d="M 220.000,111.400 C 216.374,111.595 217.217,111.400 214.400,109.800" stroke-width="5.079" stroke="black" fill="none" stroke-linecap="round"></path><path d="M 214.400,109.800 C 211.955,106.799 211.974,107.595 211.200,103.400" stroke-width="5.141" stroke="black" fill="none" stroke-linecap="round"></path><path d="M 211.200,103.400 C 209.695,98.625 210.355,99.599 211.200,95.400" stroke-width="4.952" stroke="black" fill="none" stroke-linecap="round"></path><path d="M 211.200,95.400 C 213.913,93.268 212.495,92.625 216.800,91.400" stroke-width="4.757" stroke="black" fill="none" stroke-linecap="round"></path><path d="M 216.800,91.400 C 220.737,88.885 220.713,88.868 224.800,86.600" stroke-width="4.511" stroke="black" fill="none" stroke-linecap="round"></path><path d="M 224.800,86.600 C 228.017,83.320 227.137,85.285 229.600,84.200" stroke-width="4.888" stroke="black" fill="none" stroke-linecap="round"></path><path d="M 229.600,84.200 C 231.475,87.278 231.617,85.320 232.000,90.600" stroke-width="5.228" stroke="black" fill="none" stroke-linecap="round"></path><path d="M 232.000,90.600 C 232.000,95.000 232.675,94.878 232.000,99.400" stroke-width="4.672" stroke="black" fill="none" stroke-linecap="round"></path><path d="M 232.000,99.400 C 230.695,103.407 232.000,102.600 232.000,105.800" stroke-width="4.294" stroke="black" fill="none" stroke-linecap="round"></path><path d="M 232.000,105.800 C 234.700,108.846 233.095,107.807 236.800,108.200" stroke-width="5.030" stroke="black" fill="none" stroke-linecap="round"></path><path d="M 236.800,108.200 C 240.105,105.778 239.900,107.246 242.400,102.600" stroke-width="4.693" stroke="black" fill="none" stroke-linecap="round"></path><path d="M 242.400,102.600 C 245.176,98.354 245.305,98.578 247.200,93.800" stroke-width="3.755" stroke="black" fill="none" stroke-linecap="round"></path><path d="M 247.200,93.800 C 247.944,90.983 248.376,91.154 248.800,88.200" stroke-width="4.088" stroke="black" fill="none" stroke-linecap="round"></path><path d="M 248.800,88.200 C 249.833,85.855 249.544,85.783 250.400,83.400" stroke-width="4.216" stroke="black" fill="none" stroke-linecap="round"></path><path d="M 250.400,83.400 C 250.430,80.496 251.033,80.655 251.200,77.800" stroke-width="4.219" stroke="black" fill="none" stroke-linecap="round"></path><path d="M 251.200,77.800 C 252.125,74.855 252.030,74.896 253.600,72.200" stroke-width="4.247" stroke="black" fill="none" stroke-linecap="round"></path><path d="M 253.600,72.200 C 256.249,67.692 256.125,67.655 259.200,63.400" stroke-width="4.287" stroke="black" fill="none" stroke-linecap="round"></path><path d="M 259.200,63.400 C 260.275,60.108 260.649,61.292 262.400,59.400" stroke-width="4.821" stroke="black" fill="none" stroke-linecap="round"></path><path d="M 262.400,59.400 C 265.897,59.039 265.075,58.508 268.800,60.200" stroke-width="4.940" stroke="black" fill="none" stroke-linecap="round"></path><path d="M 268.800,60.200 C 272.096,61.719 271.897,61.439 274.400,64.200" stroke-width="4.245" stroke="black" fill="none" stroke-linecap="round"></path><path d="M 274.400,64.200 C 276.749,67.835 277.297,67.319 279.200,71.400" stroke-width="3.923" stroke="black" fill="none" stroke-linecap="round"></path><path d="M 279.200,71.400 C 281.919,73.889 281.149,74.235 283.200,77.000" stroke-width="3.930" stroke="black" fill="none" stroke-linecap="round"></path><path d="M 283.200,77.000 C 284.130,80.979 284.719,80.689 284.800,85.000" stroke-width="3.888" stroke="black" fill="none" stroke-linecap="round"></path><path d="M 284.800,85.000 C 285.421,91.757 285.330,88.179 285.600,91.400" stroke-width="4.454" stroke="black" fill="none" stroke-linecap="round"></path><path d="M 285.600,91.400 C 284.953,87.283 285.822,90.957 285.600,83.400" stroke-width="5.006" stroke="black" fill="none" stroke-linecap="round"></path><path d="M 285.600,83.400 C 286.289,79.934 286.153,80.083 288.000,77.000" stroke-width="4.266" stroke="black" fill="none" stroke-linecap="round"></path><path d="M 288.000,77.000 C 292.379,70.586 291.889,70.334 296.800,64.200" stroke-width="3.242" stroke="black" fill="none" stroke-linecap="round"></path><path d="M 296.800,64.200 C 299.514,60.136 299.579,60.186 302.400,56.200" stroke-width="3.414" stroke="black" fill="none" stroke-linecap="round"></path><path d="M 302.400,56.200 C 303.597,52.367 303.914,54.136 305.600,52.200" stroke-width="3.966" stroke="black" fill="none" stroke-linecap="round"></path><path d="M 305.600,52.200 C 309.285,53.164 308.397,51.967 312.000,55.400" stroke-width="4.718" stroke="black" fill="none" stroke-linecap="round"></path><path d="M 312.000,55.400 C 315.949,59.148 316.085,58.764 319.200,63.400" stroke-width="3.748" stroke="black" fill="none" stroke-linecap="round"></path><path d="M 319.200,63.400 C 320.960,66.120 321.149,65.948 322.400,69.000" stroke-width="3.973" stroke="black" fill="none" stroke-linecap="round"></path><path d="M 322.400,69.000 C 323.524,71.835 323.760,71.720 324.800,74.600" stroke-width="4.043" stroke="black" fill="none" stroke-linecap="round"></path><path d="M 324.800,74.600 C 326.653,79.765 325.924,77.035 327.200,79.400" stroke-width="4.604" stroke="black" fill="none" stroke-linecap="round"></path><path d="M 327.200,79.400 C 327.200,76.200 327.853,78.965 327.200,73.000" stroke-width="4.976" stroke="black" fill="none" stroke-linecap="round"></path><path d="M 327.200,73.000 C 327.200,69.000 327.200,69.000 327.200,65.000" stroke-width="4.110" stroke="black" fill="none" stroke-linecap="round"></path><path d="M 327.200,65.000 C 327.200,61.000 327.200,61.000 327.200,57.000" stroke-width="3.851" stroke="black" fill="none" stroke-linecap="round"></path><path d="M 327.200,57.000 C 327.377,53.791 327.200,53.800 327.200,50.600" stroke-width="4.013" stroke="black" fill="none" stroke-linecap="round"></path><path d="M 327.200,50.600 C 327.446,46.437 326.977,46.591 326.400,42.600" stroke-width="3.821" stroke="black" fill="none" stroke-linecap="round"></path><path d="M 326.400,42.600 C 325.526,37.019 325.046,37.637 322.400,33.000" stroke-width="3.523" stroke="black" fill="none" stroke-linecap="round"></path><path d="M 322.400,33.000 C 316.607,26.214 317.126,26.219 309.600,21.000" stroke-width="2.890" stroke="black" fill="none" stroke-linecap="round"></path><path d="M 309.600,21.000 C 299.740,12.066 299.407,13.414 288.000,7.400" stroke-width="2.409" stroke="black" fill="none" stroke-linecap="round"></path><path d="M 288.000,7.400 C 267.932,-0.012 268.540,-0.334 247.200,-3.800" stroke-width="1.847" stroke="black" fill="none" stroke-linecap="round"></path><path d="M 247.200,-3.800 C 226.045,-6.759 226.332,-7.612 204.800,-7.800" stroke-width="1.670" stroke="black" fill="none" stroke-linecap="round"></path><path d="M 204.800,-7.800 C 184.816,-9.428 185.245,-8.759 165.600,-7.800" stroke-width="1.692" stroke="black" fill="none" stroke-linecap="round"></path><path d="M 165.600,-7.800 C 161.414,-6.126 161.216,-7.428 157.600,-3.800" stroke-width="2.723" stroke="black" fill="none" stroke-linecap="round"></path><path d="M 157.600,-3.800 C 144.841,3.701 145.014,3.874 132.800,12.200" stroke-width="2.154" stroke="black" fill="none" stroke-linecap="round"></path><path d="M 132.800,12.200 C 124.899,18.730 124.441,18.101 116.800,25.000" stroke-width="2.417" stroke="black" fill="none" stroke-linecap="round"></path><path d="M 116.800,25.000 C 112.109,27.846 112.499,28.330 108.000,31.400" stroke-width="3.047" stroke="black" fill="none" stroke-linecap="round"></path><path d="M 108.000,31.400 C 97.340,40.742 97.309,40.646 87.200,50.600" stroke-width="2.389" stroke="black" fill="none" stroke-linecap="round"></path><path d="M 87.200,50.600 C 83.001,54.839 82.940,54.742 79.200,59.400" stroke-width="2.919" stroke="black" fill="none" stroke-linecap="round"></path></svg>